<?xml version="1.0" encoding="iso-8859-1"?>
<!-- Uploaded to: SVG Repo, www.svgrepo.com, Generator: SVG Repo Mixer Tools -->
<!DOCTYPE svg PUBLIC "-//W3C//DTD SVG 1.1//EN" "http://www.w3.org/Graphics/SVG/1.1/DTD/svg11.dtd">
<svg fill="#000000" height="800px" width="800px" version="1.1" id="Capa_1" xmlns="http://www.w3.org/2000/svg" xmlns:xlink="http://www.w3.org/1999/xlink" 
	 viewBox="0 0 344.635 344.635" xml:space="preserve">
<path d="M334.931,31.323c-3.156-17.18-15.383-30.119-33.461-31.166c0,0-21.547-2.766-59.563,14.928
	c-5.052,2.351-24.6,13.066-34.723,19.123c-4.295-0.629-15.666-1.982-34.094-1.982h-0.586c-38,0.061-71.754,13.287-97.613,38.254
	c-25.777,24.885-42.299,60.125-47.783,101.906c-0.289,2.207,0.916,4.342,2.955,5.232c2.043,0.893,4.424,0.326,5.848-1.387
	c2.633-3.168,37.471-73.877,96.451-96.645C75.714,129.688,15.482,202.055,10.019,282.803c-5.787,70.836,53.684,61.416,53.684,61.416
	c37.904-5.705,61.711-20.949,85.898-36.551c10.762,1.5,21.322,2.262,31.408,2.262c68.092,0,119.492-35.055,141.024-96.174
	c0.539-1.529,0.301-3.227-0.635-4.549c-0.938-1.324-2.459-2.111-4.082-2.111h-91.424c-2.281,0-4.275,1.545-4.842,3.756
	c-4.311,16.777-19.668,27.203-40.084,27.205c-15.445,0-29.564-6.063-37.77-16.219c-6.35-7.859-8.676-17.783-6.777-28.809h183.449
	c2.674,0,4.873-2.104,4.994-4.775c1.797-39.818-5.848-71.322-23.371-96.309c-16.703-23.818-42.078-41.279-77.461-53.273
	c14.916-8.826,46.248-26.111,70.957-26.111c11.117,0,19.631,3.606,25.301,10.711c2.443,3.066,4.047,7.396,4.768,12.869
	c0.344,2.613,2.645,4.492,5.283,4.338c2.629-0.172,4.674-2.355,4.674-4.99v-3.262C335.013,31.924,334.986,31.622,334.931,31.323z
	 M69.773,325.624c-11.936,0-20.979-3.506-25.916-11.08c-15.5-23.779,8.436-61.643,8.908-62.703
	c22.371,27.098,49.398,44.197,82.363,52.098C119.15,313.403,91.331,325.624,69.773,325.624z M224.152,137.221l-86.273,0.059
	c-0.064-9.498,3.15-17.953,9.369-24.57c8.318-8.852,20.717-14.125,34.898-14.125c13.391,0,26.326,4.656,33.691,12.793
	C221.853,118.024,224.708,126.922,224.152,137.221z"/>
</svg>